<svg xmlns:xlink="http://www.w3.org/1999/xlink" viewBox="0 0 657 217" fill="none" xmlns="http://www.w3.org/2000/svg" width="705"  height="233" >
<path d="M515.24 48.6021C525.423 48.6021 543.49 52.2155 547.104 79.1509C551.702 111.013 561.556 158.643 564.841 179.666C565.498 185.249 567.14 187.878 569.439 189.52C571.739 191.491 577.323 192.148 582.907 188.863L584.879 187.549C593.091 182.294 600.645 177.367 601.631 176.709C609.186 172.111 624.953 167.841 635.136 181.308C636.121 182.622 648.604 202.988 652.217 208.244C654.118 211.172 655.714 214.101 657 217.001H497.799C471.453 166.956 427.561 84.2154 420.31 69.9536C414.397 60.0993 421.624 49.2589 432.135 48.9302C437.062 48.9302 509.325 48.9305 515.24 48.6021ZM352.32 48.9126H380.241C392.066 49.5696 400.936 56.7963 407.834 69.607C411.096 75.8972 455.998 162.489 484.646 217.001H331.396C331.298 156.946 331.298 66.8732 331.298 65.9937C331.955 56.1394 338.524 48.5842 352.32 48.9126ZM298.77 48.9195C319.791 48.9196 320.449 64.029 320.449 69.9419V125.456C320.449 136.295 305.667 148.121 287.93 134.325C286.944 133.668 275.119 124.799 267.235 118.886C264.936 117.244 255.41 109.688 254.096 108.703C253.11 107.72 248.513 119.872 258.694 127.098C262.965 130.383 272.82 138.266 277.09 141.551C288.258 149.106 287.929 163.56 278.075 170.458C274.79 173.085 266.25 178.34 261.979 180.968C248.185 188.522 253.109 201.003 253.438 200.677C256.066 198.378 290.558 177.355 294.171 174.399C304.682 166.844 321.434 171.115 320.777 185.568V217.001H175.954C189.818 190.753 202.899 164.151 206.466 157.647C210.079 151.077 213.365 142.208 203.839 136.624C194.313 130.711 211.065 140.894 199.239 133.668C191.027 128.74 185.115 116.586 191.356 105.089C194.313 98.8478 204.496 80.1247 211.394 67.9712C219.277 54.5038 222.89 48.9195 241.613 48.9195H298.77ZM90.8447 63.0523C99.7135 46.9571 117.451 48.271 121.394 48.271H177.893C188.404 48.2711 202.199 57.797 195.63 73.564C194.315 76.5225 180.521 102.142 178.55 105.098C173.623 112.982 167.493 116.941 160.851 116.941C160.819 116.941 158.955 116.923 158.841 116.923H132.233C132.562 119.88 133.548 122.507 135.519 124.478C139.46 128.091 143.402 127.763 145.373 127.763H158.512C170.665 127.763 170.009 127.434 178.55 133.675C180.849 135.318 187.09 139.589 189.39 141.231C195.302 144.844 198.258 152.728 193.331 160.611C191.582 163.585 178.188 189.193 163.469 217.001H0C1.28543 214.1 2.88156 211.17 4.7832 208.241C8.39644 202.985 20.8785 182.62 21.8643 181.305C32.0471 167.838 48.1426 172.108 55.3691 176.707C57.34 178.02 91.1731 200.028 93.1445 201.342C101.014 206.589 107.575 198.415 107.598 198.386C92.8161 188.532 78.3632 179.006 68.5088 172.436C53.3987 163.239 44.5299 146.158 54.0557 127.763C59.3113 118.237 83.618 77.1771 90.8447 63.0523ZM590.463 125.52C593.748 125.52 597.033 126.177 600.317 128.148C603.602 129.79 606.23 132.418 608.201 135.703C609.844 138.987 610.829 142.272 610.829 145.885C610.829 149.498 609.843 152.783 608.201 156.068C606.23 159.353 603.931 161.981 600.646 163.624C597.362 165.594 593.748 166.251 590.463 166.251C586.85 166.251 583.565 165.594 580.28 163.624C576.995 161.981 574.368 159.353 572.726 156.068C570.755 152.783 569.769 149.498 569.769 145.885C569.769 142.272 570.755 138.987 572.726 135.703C574.368 132.418 576.996 129.79 580.28 128.148C583.565 126.177 586.85 125.52 590.463 125.52ZM590.463 128.804C587.507 128.804 584.551 129.462 581.923 131.104C579.295 132.418 576.996 134.717 575.682 137.345C574.039 139.973 573.382 142.929 573.382 145.885C573.382 148.842 574.039 151.798 575.682 154.426C576.996 157.054 579.295 159.025 581.923 160.668C584.551 162.31 587.507 162.966 590.463 162.966C593.419 162.966 596.047 162.31 598.675 160.668C601.631 159.025 603.603 157.054 605.245 154.426C606.559 151.798 607.544 148.842 607.544 145.885C607.544 142.929 606.559 139.973 605.245 137.345C603.603 134.717 601.303 132.418 598.675 131.104C596.047 129.462 593.091 128.804 590.463 128.804ZM588.82 135.375C591.448 135.375 593.42 135.374 594.405 135.703C595.719 136.36 596.704 137.016 597.361 138.001C598.018 138.987 598.347 139.973 598.347 141.287C598.347 142.929 597.689 144.243 596.704 145.228C595.39 146.542 594.076 147.199 592.105 147.528C592.762 147.528 593.419 148.185 594.076 148.513C594.733 149.499 596.048 150.813 597.033 152.784L599.989 157.054H595.391L593.42 153.769C592.106 151.141 590.792 149.17 589.807 148.513C589.15 148.185 588.164 147.856 587.179 147.856H584.879V157.054H581.266V135.375H588.82ZM584.879 144.9H589.149C591.449 144.9 592.763 144.572 593.42 143.915C594.077 143.258 594.733 142.6 594.733 141.615C594.733 140.958 594.405 140.301 594.076 139.644C593.748 139.316 593.09 138.987 592.434 138.659C591.777 138.33 590.791 138.331 588.82 138.331H584.879V144.9Z" fill="#0C0F1D"></path>
<path d="M640.849 96.2264C639.197 93.8563 637.138 91.5848 635.643 89.9106L635.274 89.4951C635.109 89.307 634.947 89.1342 634.804 88.9734C632.566 67.5143 629.929 51.7216 623.866 39.5516C620.29 32.3825 615.688 26.7826 609.77 22.415C608.618 21.5731 607.408 20.7586 606.166 20.0142C601.282 17.082 595.693 14.8785 589.044 13.3016L588.295 13.1214C575.874 10.3117 566.206 12.1798 558.392 14.3679C555.517 15.1731 553.008 15.9833 550.587 16.7598C548.655 17.3736 546.829 17.9659 545.021 18.4912L536.162 20.3692C524.33 22.2498 515.167 26.1356 508.163 32.2411C501.979 37.6264 497.599 44.7337 495.101 53.3894L494.211 53.9181C492.178 55.1222 489.965 56.4575 488.462 57.3955C481.894 61.593 478.591 68.6242 479.807 75.7819C480.667 80.7968 483.74 85.3309 488.047 87.9212C489.36 88.6989 490.767 89.3151 492.225 89.7152L492.444 89.7815L518.594 96.3854C518.761 96.4305 518.925 96.4604 519.074 96.4934C519.729 96.677 520.398 96.8575 521.077 97.0045C522.662 97.4104 537.796 101.267 555.952 105.903L559.99 106.934C560.261 107.021 560.547 107.106 560.83 107.175L561.709 107.376L561.992 107.445L563.243 107.761L572.135 110.021L582.032 112.553C602.956 117.892 621.596 122.651 623.23 123.062C630.336 124.863 637.508 122.157 641.489 116.206C645.506 110.201 645.253 102.563 640.834 96.2295L640.849 96.2264Z" fill="#F6F6F6"></path>
<path d="M522.985 54.4356C524.281 54.5048 525.699 54.8655 526.85 55.4703C527.929 56.0267 529.047 56.9387 529.355 58.221C529.709 59.4941 529.334 60.5352 528.643 61.261C528.031 61.9075 527.202 62.2657 526.637 62.4437C525.452 62.8425 524.397 63.025 523.637 63.1003C523.546 63.1188 523.467 63.119 523.388 63.1192C522.857 65.4897 523.069 67.3926 523.697 68.8474C524.407 70.4752 525.682 71.6087 527.255 72.191C530.421 73.3676 534.925 72.3266 538.203 68.1327C538.578 67.645 539.275 67.5669 539.762 67.9426C540.25 68.3182 540.328 69.0143 539.952 69.502C536.375 74.0891 531.267 75.6641 527.156 74.5054C527.077 74.5056 526.995 74.4907 526.928 74.4726L513.92 70.9591C513.437 70.9149 512.929 70.8283 512.393 70.6839C511.806 70.5184 511.46 69.9081 511.611 69.3239C511.776 68.7365 512.386 68.3911 512.971 68.5414C513.238 68.6136 513.518 68.6675 513.78 68.7093C513.886 68.6877 513.984 68.6996 514.096 68.7084C514.227 68.7293 514.373 68.7471 514.504 68.768C516.11 68.8058 517.412 68.13 518.492 67.0564C519.717 65.8425 520.621 64.14 521.212 62.4536C520.931 62.1625 520.641 61.8258 520.37 61.5012C519.903 60.9157 519.396 60.2117 519.105 59.6378C518.723 58.8453 518.505 58.0827 518.548 57.3619C518.586 56.6106 518.882 55.9651 519.385 55.4832C520.31 54.5834 521.757 54.3845 523.001 54.4325L522.985 54.4356Z" fill="#0C0F1D"></path>
<path d="M541.336 43.8268C543.022 44.1016 544.302 45.1074 544.908 46.5348C545.217 47.2789 545.332 48.0783 545.268 48.93C544.471 50.0726 542.497 49.6193 541.217 49.7052C539.581 49.7525 539.247 51.0702 540.23 52.2472C540.746 52.9968 541.54 54.0223 541.396 54.9532C541.326 54.999 541.257 55.0448 541.172 55.0937C539.736 55.9707 538.047 56.4561 536.444 56.2754C536.428 56.2784 536.413 56.2815 536.395 56.2694C534.709 55.9946 533.429 54.9888 532.823 53.5614C532.238 52.1612 532.34 50.4793 533.083 48.8411C533.829 47.2182 535.102 45.8521 536.55 44.9568C537.983 44.0647 539.699 43.5579 541.318 43.8146L541.336 43.8268Z" fill="#0C0F1D"></path>
<path d="M525.807 39.8919C527.459 40.1577 528.706 41.1544 529.297 42.585C529.624 43.3412 529.736 44.2045 529.678 45.0865C528.842 46.1107 526.937 45.6906 525.706 45.7824C524.07 45.8298 523.736 47.1475 524.603 48.3004C525.201 49.065 526.01 50.0874 525.885 51.0304C524.346 52.0233 522.539 52.5486 520.832 52.3255C520.832 52.3255 520.802 52.3317 520.787 52.3348C519.135 52.069 517.888 51.0722 517.297 49.6417C516.727 48.2385 516.832 46.5718 517.575 44.9336C518.321 43.3106 519.594 41.9445 521.042 41.0493C522.475 40.1571 524.191 39.6503 525.81 39.9071L525.807 39.8919Z" fill="#0C0F1D"></path>
<path d="M586.175 22.3174C593.493 23.9957 599.394 26.4841 604.175 30.0066C608.975 33.5412 612.601 38.0736 615.431 43.7487C621.044 55.0291 623.526 70.9165 625.701 92.6099C625.704 92.6251 625.734 92.698 625.808 92.8255C625.924 93.0076 626.086 93.2596 626.339 93.572C626.812 94.1879 627.486 94.9371 628.261 95.7923C629.793 97.4907 631.706 99.5863 633.132 101.623C635.453 104.949 635.36 108.464 633.682 110.956C632.017 113.431 628.904 114.775 625.554 113.936C623.685 113.461 599.09 107.19 574.477 100.907C571.038 100.023 567.602 99.1546 564.23 98.2887C563.832 98.1956 563.433 98.1025 563.035 98.0094C562.952 97.9945 562.867 97.9643 562.797 97.9311C542.673 92.7934 525.068 88.2991 523.352 87.8723C522.603 87.692 521.87 87.5087 521.148 87.3071C521.069 87.3073 521.002 87.2893 520.92 87.2743L494.77 80.6704C494.77 80.6704 494.77 80.6704 494.755 80.6735C491.806 79.8642 489.609 77.2251 489.11 74.2252C488.581 71.1524 489.818 67.7369 493.503 65.3906C494.905 64.5046 497.079 63.2089 499.055 62.0323C500.888 60.9322 502.54 59.9482 503.326 59.4563C505.128 50.8787 508.767 44.2541 514.357 39.3692C520.193 34.2919 528.044 31.1945 537.889 29.6542L547.2 27.6685C551.84 26.3625 556.263 24.7682 560.948 23.4529C568.416 21.351 576.31 20.0962 586.181 22.3478L586.175 22.3174ZM602.864 31.8076C598.381 28.5092 592.785 26.1173 585.683 24.49C576.307 22.3434 568.797 23.5362 561.535 25.5646C558.451 26.4281 555.356 27.4681 552.175 28.4779C552.398 29.8092 553.42 31.1046 554.938 32.2679C556.605 33.5432 558.63 34.4769 559.936 34.9079C560.496 35.0948 560.808 35.6959 560.639 36.2681C560.48 36.8068 559.945 37.1368 559.407 37.0563L559.291 37.0323L545.065 33.4342C542.53 32.794 540.099 32.5122 538.353 32.4079C537.486 32.3466 536.787 32.3304 536.328 32.3287C536.106 32.3263 535.932 32.3299 535.823 32.3363C535.777 32.3455 535.729 32.3396 535.695 32.3306C535.695 32.3306 535.665 32.3367 535.616 32.3308C535.616 32.3308 535.586 32.337 535.552 32.3279C535.552 32.3279 535.504 32.322 535.455 32.3161C527.161 33.9369 520.635 36.7811 515.739 41.0345C510.24 45.8219 506.702 52.4736 505.111 61.4672L505.024 61.9752C504.261 67.1774 505.325 72.1826 508.253 76.3188C511.288 80.5914 516.386 84.0339 523.753 85.7182L523.768 85.7151C525.42 86.139 543.844 90.8468 564.601 96.1408C568.055 96.9425 571.049 97.5054 573.522 97.6836C576.299 97.8792 578.207 97.5391 579.366 96.7025C580.808 95.6187 581.564 94.1994 581.707 92.414C581.736 91.8544 581.722 91.2402 581.647 90.5592C581.479 89.1852 581.04 87.6448 580.341 85.9987C580.289 85.8985 580.253 85.7952 580.204 85.7102C580.149 85.5948 580.097 85.4946 580.066 85.4217C580.06 85.3913 580.039 85.364 580.035 85.3488L580.032 85.3336C580.032 85.3336 579.971 85.1879 579.959 85.1271C579.426 83.9853 578.787 82.786 578.042 81.5293C576.841 79.5106 574.874 75.7487 573.36 73.6671C573.006 73.1695 573.119 72.4819 573.598 72.1156C574.096 71.7614 574.784 71.8749 575.15 72.3543C576.735 74.5482 578.866 78.5772 579.945 80.3833C580.758 81.7372 581.455 83.067 582.049 84.3546C582.055 84.385 582.094 84.4244 582.119 84.4669C582.214 84.6217 582.354 84.8464 582.519 85.1135C582.849 85.6477 583.304 86.4096 583.833 87.299C584.912 89.1052 586.315 91.4943 587.718 93.8833C589.12 96.2724 590.523 98.6614 591.568 100.459C592.097 101.348 592.519 102.101 592.831 102.623C592.977 102.878 593.1 103.091 593.191 103.23C593.237 103.3 593.265 103.358 593.286 103.385C593.289 103.4 593.292 103.415 593.295 103.431C593.295 103.431 593.305 103.476 593.323 103.488C610.559 107.883 624.576 111.461 625.961 111.812C628.411 112.422 630.57 111.446 631.714 109.758C632.831 108.091 633.046 105.564 631.199 102.933C630.35 101.713 629.306 100.469 628.238 99.262C627.421 99.681 626.754 100.212 626.321 100.885C626.067 101.269 625.861 101.738 625.772 102.31L625.78 104.144C625.778 104.287 625.76 104.433 625.705 104.555L625.723 105.263C625.737 105.877 625.255 106.386 624.643 106.416C624.029 106.43 623.52 105.948 623.491 105.337L622.962 89.0206C622.962 89.0206 622.971 88.9081 622.977 88.8594C620.888 69.2214 618.407 54.9791 613.333 44.7918C610.638 39.39 607.228 35.1458 602.746 31.8475L602.864 31.8076ZM500.179 63.9083C498.191 65.1031 496.045 66.3775 494.67 67.2421C491.702 69.1423 490.903 71.6777 491.277 73.8326C491.649 76.0513 493.266 77.938 495.311 78.5037L497.679 79.0988C499.821 77.5721 500.756 75.7843 501.198 73.2104C501.554 71.1446 501.574 68.6723 501.577 65.4915C501.505 64.8258 501.497 64.1629 501.589 63.5271C501.589 63.369 501.588 63.2108 501.588 63.0527C501.136 63.3186 500.659 63.621 500.164 63.9114L500.179 63.9083ZM535.866 32.3118C535.866 32.3118 535.881 32.3087 535.896 32.3057C535.896 32.3057 535.926 32.2995 535.942 32.2964C535.911 32.3026 535.866 32.3118 535.835 32.318L535.866 32.3118Z" fill="#0C0F1D"></path>
</svg>